<mxfile host="app.diagrams.net" modified="2024-03-01T16:47:46.424Z" agent="Mozilla/5.0 (Macintosh; Intel Mac OS X 10_15_7) AppleWebKit/537.36 (KHTML, like Gecko) Chrome/121.0.0.0 Safari/537.36" version="23.1.6" etag="T3gVHWYrOMBj2hmMZjii" type="github">
  <diagram name="PÃ¡gina-1" id="VjcHlGj8AMddw_qK1Cjs">
    <mxGraphModel>
      <root>
        <mxCell id="0" />
        <mxCell id="1" parent="0" />
      </root>
    </mxGraphModel>
  </diagram>
</mxfile>
